<?xml version="1.0" encoding="UTF-8"?>
<mxfile host="app.diagrams.net">
  <diagram name="Diagrama de Caso de Uso - Agentes de Endemias" id="case-use-1">
    <mxGraphModel dx="1000" dy="1000" grid="1" gridSize="10" guides="1" tooltips="1" connect="1" arrows="1" fold="1" page="1" pageScale="1" pageWidth="850" pageHeight="1100">
      <root>
        <mxCell id="0"/>
        <mxCell id="1" parent="0"/>

        <!-- Atores -->
        <mxCell id="agente" value="Agente de Endemias" style="shape=umlActor;" vertex="1" parent="1">
          <mxGeometry x="80" y="40" width="120" height="60" as="geometry"/>
        </mxCell>
        <mxCell id="chefe" value="Guarda-Chefe" style="shape=umlActor;" vertex="1" parent="1">
          <mxGeometry x="80" y="320" width="120" height="60" as="geometry"/>
        </mxCell>
        <mxCell id="pit" value="Colaborador do PIT" style="shape=umlActor;" vertex="1" parent="1">
          <mxGeometry x="80" y="200" width="120" height="60" as="geometry"/>
        </mxCell>

        <!-- Casos de uso -->
        <mxCell id="cad_res" value="Cadastrar Residência" style="ellipse;whiteSpace=wrap;html=1;" vertex="1" parent="1">
          <mxGeometry x="300" y="20" width="160" height="60" as="geometry"/>
        </mxCell>
        <mxCell id="real_pesq" value="Realizar Pesquisa" style="ellipse;whiteSpace=wrap;html=1;" vertex="1" parent="1">
          <mxGeometry x="300" y="100" width="160" height="60" as="geometry"/>
        </mxCell>
        <mxCell id="cons_pesq" value="Consultar Pesquisas" style="ellipse;whiteSpace=wrap;html=1;" vertex="1" parent="1">
          <mxGeometry x="300" y="180" width="160" height="60" as="geometry"/>
        </mxCell>
        <mxCell id="real_borrif" value="Realizar Borrifação" style="ellipse;whiteSpace=wrap;html=1;" vertex="1" parent="1">
          <mxGeometry x="300" y="260" width="160" height="60" as="geometry"/>
        </mxCell>
        <mxCell id="cons_borrif" value="Consultar Borrifações" style="ellipse;whiteSpace=wrap;html=1;" vertex="1" parent="1">
          <mxGeometry x="300" y="340" width="160" height="60" as="geometry"/>
        </mxCell>
        <mxCell id="cad_pit" value="Cadastrar PIT" style="ellipse;whiteSpace=wrap;html=1;" vertex="1" parent="1">
          <mxGeometry x="300" y="420" width="160" height="60" as="geometry"/>
        </mxCell>
        <mxCell id="relatorio" value="Consultar Relatórios" style="ellipse;whiteSpace=wrap;html=1;" vertex="1" parent="1">
          <mxGeometry x="300" y="500" width="160" height="60" as="geometry"/>
        </mxCell>
        <mxCell id="atividades" value="Acessar Atividades dos Agentes" style="ellipse;whiteSpace=wrap;html=1;" vertex="1" parent="1">
          <mxGeometry x="300" y="580" width="200" height="60" as="geometry"/>
        </mxCell>

        <!-- Conexões -->
        <mxCell id="a1" style="endArrow=none;" edge="1" parent="1" source="agente" target="cad_res"/>
        <mxCell id="a2" style="endArrow=none;" edge="1" parent="1" source="agente" target="real_pesq"/>
        <mxCell id="a3" style="endArrow=none;" edge="1" parent="1" source="agente" target="cons_pesq"/>
        <mxCell id="a4" style="endArrow=none;" edge="1" parent="1" source="agente" target="real_borrif"/>
        <mxCell id="a5" style="endArrow=none;" edge="1" parent="1" source="agente" target="cons_borrif"/>
        <mxCell id="a6" style="endArrow=none;" edge="1" parent="1" source="pit" target="cad_pit"/>
        <mxCell id="a7" style="endArrow=none;" edge="1" parent="1" source="chefe" target="relatorio"/>
        <mxCell id="a8" style="endArrow=none;" edge="1" parent="1" source="chefe" target="atividades"/>

      </root>
    </mxGraphModel>
  </diagram>
</mxfile>
